<?xml version="1.0" encoding="UTF-8"?>
<svg id="Layer_2" data-name="Layer 2" xmlns="http://www.w3.org/2000/svg" xmlns:xlink="http://www.w3.org/1999/xlink" viewBox="0 0 302.36 99.95">
  <defs>
    <style>
      .cls-1 {
        fill: #77787b;
      }

      .cls-2 {
        clip-path: url(#clippath-1);
      }

      .cls-3 {
        fill: #fcf2d4;
      }

      .cls-4 {
        fill: #f9e8aa;
      }

      .cls-5 {
        fill: #f37321;
      }

      .cls-6 {
        fill: #c7c8ca;
      }

      .cls-7 {
        clip-path: url(#clippath);
      }

      .cls-8 {
        fill: none;
      }

      .cls-9 {
        fill: #08242d;
      }

      .cls-10 {
        fill: #f47621;
      }

      .cls-11 {
        fill: #254653;
      }
    </style>
    <clipPath id="clippath">
      <rect class="cls-8" width="302.36" height="99.95"/>
    </clipPath>
    <clipPath id="clippath-1">
      <rect class="cls-8" width="302.36" height="99.95"/>
    </clipPath>
  </defs>
  <g id="Layer_1-2" data-name="Layer 1">
    <g>
      <rect class="cls-11" y="8.48" width="86.79" height="91.17"/>
      <g class="cls-7">
        <path class="cls-10" d="M26.27,57.24v42.71h6.81v-23.28c9.8,0,18.35-5.31,22.95-13.05,0,0,.03-6.27,.03-6.38H26.27"/>
        <path class="cls-1" d="M94,61.98v37.98h6.81V61.67c-2.21,0-4.17,.3-6.81,.3"/>
        <path class="cls-4" d="M88.81,12.95l-.1,34.41c0,4.75-.72,10.18-1.53,14.33v6.86c2.44-.22,4.73-.82,6.82-1.76,2.64-1.19,4.96-2.93,6.81-5.11,3.12-3.66,4.96-8.58,4.96-14.31V12.87l-16.96,.08Z"/>
        <path class="cls-3" d="M80.37,68.19l2.47-3.44-.1-11.23s-39.03-.1-39.03-.1c-.21,2.58-.07,5.36-.07,7.85l36.73,6.91"/>
        <path class="cls-6" d="M46,36.3l-26.54,1.17c-4.12-2.87-6.82-7.65-6.82-13.05,0-8.78,7.12-15.9,15.9-15.9l3.05-3.33-3.05-3.49C15.99,1.7,5.82,11.87,5.82,24.42c0,9.31,5.61,17.32,13.63,20.82v16.92l3.45,3.42-3.45,3.39v.31h-6.82v30.67h6.82v-23.28c2.36,0,4.64-.31,6.82-.88,7.75-2.05,14.11-7.48,17.37-14.5,.96-2.06,1.65-4.26,2.02-6.55,1.85-2.13,5.15-6.04,6.69-8.1l-6.36-10.34Z"/>
        <path class="cls-5" d="M105.78,3.89v0L103.5,0h-13.63C87.76,0,86.05,1.71,86.05,3.82c0,1.43,.79,2.68,1.95,3.33l-7.22,27.6-34.79,1.54v14.34c0,1.39-.12,2.76-.34,4.09l34.71,6.53v15.98h0l2.19,3.56-2.19,3.26h0v15.9h6.82v-15.88l-2.04-3.24,2.04-3.63v-15.51c2.62-.34,4.98-1.32,6.91-2.92,3.14-2.6,4.87-6.65,4.87-11.4V15.14l6.82-2.27,.23-.08c2.37-.79,4.31-3.48,4.31-5.98v-2.27l-4.54-.65Z"/>
        <path class="cls-11" d="M34.56,8.52c1.88,0,3.41-1.53,3.41-3.41s-1.53-3.41-3.41-3.41h-6.02v6.81h6.02Z"/>
      </g>
      <rect class="cls-9" x="55.08" y="40.84" width="6.81" height="6.81"/>
      <rect class="cls-9" x="68.86" y="47.66" width="6.82" height="6.81"/>
      <rect class="cls-9" x="80.41" y="40.84" width="6.82" height="6.81"/>
      <rect class="cls-9" x="80.36" y="77.24" width="6.82" height="6.82"/>
      <rect class="cls-9" x="94" y="86.32" width="6.82" height="6.82"/>
      <rect class="cls-9" x="92.15" y="21.96" width="6.82" height="6.82"/>
      <rect class="cls-11" x="29.32" y="48.53" width="6.82" height="6.81"/>
      <rect class="cls-11" x="19.45" y="62.16" width="6.82" height="6.82"/>
      <g class="cls-2">
        <g>
          <path class="cls-11" d="M129.04,99.95v-30.76h5.03v26.76h16.15v4h-21.17Z"/>
          <path class="cls-11" d="M153.74,99.95v-30.76h21.95v4h-16.92v9.01h14.5v4h-14.5v9.76h16.92v4h-21.95Z"/>
          <path class="cls-11" d="M182.85,99.95h-5.32l12.28-30.76h4.45l12.18,30.76h-5.37l-2.8-7.38h-12.62l-2.8,7.38Zm9.09-24.17l-4.93,13.1h9.96l-4.93-13.1h-.1Z"/>
          <path class="cls-11" d="M209.53,99.95v-30.76h21.95v4h-16.92v9.01h14.5v4h-14.5v9.76h16.92v4h-21.95Z"/>
          <path class="cls-11" d="M257.49,99.95l-15.61-22.28h-.14v22.28h-5.03v-30.76h4.79l15.66,22.32h.05v-22.32h5.08v30.76h-4.79Z"/>
          <path class="cls-11" d="M270.69,99.95h-5.32l12.28-30.76h4.45l12.18,30.76h-5.37l-2.8-7.38h-12.62l-2.8,7.38Zm9.09-24.17l-4.93,13.1h9.96l-4.93-13.1h-.1Z"/>
        </g>
      </g>
    </g>
  </g>
</svg>