<?xml version="1.0" encoding="UTF-8"?>
<svg id="Layer_2" data-name="Layer 2" xmlns="http://www.w3.org/2000/svg" viewBox="0 0 407.41 67.66">
  <defs>
    <style>
      .cls-1 {
        fill: #00b8d8;
      }

      .cls-2 {
        fill: #666668;
      }

      .cls-3 {
        fill: #bf2f38;
      }
    </style>
  </defs>
  <g id="Layer_1-2" data-name="Layer 1">
    <g>
      <path class="cls-3" d="M332.14,33.11v29.03h20.71v-3.77h-15.97v-9.21h13.69v-3.77h-13.69v-8.5h15.97v-3.77h-20.71Zm45.34,0l-13.59,14.47v-14.47h-4.74v29.03h4.74v-8.71l5.52-5.68,9.26,14.39h5.52l-11.63-17.87,10.58-11.16h-5.66Zm7.35,0v3.77h8.9v25.26h4.79v-25.26h8.9v-3.77h-22.58Z"/>
      <polygon class="cls-3" points="292.27 34.56 292.27 38.5 314.28 38.5 314.28 58.2 304.53 58.2 304.53 49.64 292.27 49.64 292.27 62.14 295.98 62.14 295.98 62.14 318.01 62.14 318.01 34.56 292.27 34.56"/>
      <g>
        <path class="cls-2" d="M140.59,62.14l-14.74-21.03h-.14v21.03h-4.75v-29.03h4.52l14.78,21.07h.05v-21.07h4.79v29.03h-4.52Z"/>
        <path class="cls-2" d="M151.54,62.14v-29.03h20.71v3.77h-15.97v8.5h13.69v3.77h-13.69v9.21h15.97v3.77h-20.71Z"/>
        <path class="cls-2" d="M189.36,50.7h-7.39v11.45h-4.75v-29.03h12.09c6.02,0,10.45,2.99,10.45,8.92,0,5.47-4.33,8.67-10.4,8.67Zm.09-13.98h-7.48v10.37h7.39c3.6,0,5.57-2.2,5.57-5.1,0-3.73-2.74-5.27-5.48-5.27Z"/>
        <path class="cls-2" d="M221.98,62.14v-13.02h-13.09v13.02h-4.75v-29.03h4.75v12.23h13.09v-12.23h4.79v29.03h-4.79Z"/>
        <path class="cls-2" d="M232.06,50.36v-5.47c0-8.92,5.57-12.03,11.82-12.03s11.82,3.11,11.82,12.03v5.47c0,8.92-5.57,12.03-11.82,12.03s-11.82-3.11-11.82-12.03Zm18.84-.42v-4.64c0-6.93-3.15-8.5-7.03-8.5s-7.03,1.58-7.03,8.5v4.64c0,6.93,3.19,8.5,7.03,8.5s7.03-1.58,7.03-8.5Z"/>
        <path class="cls-2" d="M270.56,62.39c-4.74,0-8.08-1.24-11.77-4.27l2.83-3.11c3.01,2.45,5.57,3.44,9.03,3.44,3.83,0,6.62-1.2,6.62-4.31,0-3.28-3.19-3.98-8.3-5.06-4.84-1-8.81-3.32-8.81-7.8,0-4.85,3.97-8.42,10.63-8.42,3.97,0,7.16,.95,10.27,3.15l-2.51,3.28c-2.65-1.91-4.84-2.7-7.66-2.7-3.51,0-5.84,1.54-5.84,4.44s3.24,3.9,8.21,4.98c5.25,1.16,9.08,3.28,9.08,7.96-.14,5.43-5.11,8.42-11.77,8.42Z"/>
      </g>
      <g>
        <path class="cls-3" d="M92.55,42.97c.19,.92,.3,1.87,.3,2.85,0,7.38-5.77,13.51-13.15,13.96l-.63,.05H30.74v-.27l-4.15,.24c-.35,.02-.7,.03-1.05,.03-9.76,0-17.7-7.94-17.7-17.7s7.94-17.7,17.7-17.7c.89,0,1.78,.07,2.66,.2l3.05,.46,1.17-2.85c2.63-6.43,7.93-11.15,14.33-13.1V1.03c-8.69,1.92-16.15,7.55-20.34,15.56-.29,0-.57-.01-.86-.01C11.46,16.57,0,28.03,0,42.11c0,13.19,10.05,24.08,22.9,25.41v.14h57.04l3.92-.05v-.55c9.69-2.28,16.83-10.98,16.83-21.24,0-.97-.08-1.91-.21-2.85h-7.93Z"/>
        <rect class="cls-2" x="78.86" y="27.06" width="13.17" height="13.17"/>
        <rect class="cls-1" x="53.32" width="22.47" height="22.47"/>
        <rect class="cls-3" x="82.41" y="2.19" width="16.06" height="16.06"/>
      </g>
    </g>
  </g>
</svg>